<?xml version="1.0" standalone="no"?>
<!DOCTYPE svg PUBLIC "-
 "http://www.w3.org/TR/2001/REC-SVG-20010904/DTD/svg10.dtd">
        <svg version="1.0" xmlns="http://www.w3.org/2000/svg"
        width="187.000000pt" height="131.000000pt" viewBox="0 0 187.000000 131.000000"
        preserveAspectRatio="xMidYMid meet">

        <g transform="translate(0.000000,131.000000) scale(0.100000,-0.100000)"
        fill="#000000" stroke="none">
        <path d="M575 910 c-198 -66 -372 -122 -387 -125 -15 -4 -30 -10 -32 -14 -3
-4 173 -65 391 -135 l396 -128 183 58 c101 33 184 61 184 64 0 3 -84 32 -186
64 -175 56 -204 69 -190 83 3 3 99 -24 212 -61 152 -50 203 -71 195 -79 -6 -6
-11 -33 -11 -60 0 -31 -6 -54 -16 -64 -10 -11 -13 -23 -8 -37 4 -12 9 -90 11
-174 4 -151 4 -153 26 -150 22 3 22 6 22 148 0 80 4 153 9 163 5 11 4 28 -3
43 -6 14 -11 51 -11 82 l0 57 185 59 c102 33 182 63 178 67 -7 6 -776 260
-785 258 -1 0 -165 -54 -363 -119z"/>
        <path d="M612 442 l3 -116 54 -38 c149 -104 380 -105 544 -3 l57 37 0 118 0
118 -166 -53 -165 -53 -87 29 c-48 16 -122 40 -165 54 l-78 24 3 -117z"/>
        </g>
        </svg>
